<svg width="139" height="27" viewBox="0 0 139 27" fill="none" xmlns="http://www.w3.org/2000/svg">
<path d="M7.26992 21.2992C6.30591 21.2992 5.41836 21.133 4.60727 20.8006C3.79618 20.4615 3.09146 19.9695 2.49311 19.3246C1.89477 18.6797 1.42938 17.8952 1.09697 16.9711C0.764554 16.047 0.598347 14.9966 0.598347 13.8198C0.598347 12.2708 0.8809 10.9411 1.44601 9.83086C2.01111 8.71394 2.79561 7.85631 3.7995 7.25796C4.8034 6.65297 5.9602 6.35047 7.26992 6.35047C8.95858 6.35047 10.3049 6.74272 11.3088 7.52722C12.3193 8.31172 13.0074 9.39539 13.3731 10.7782L11.2589 11.1572C10.9664 10.2996 10.4943 9.61479 9.84281 9.10287C9.19127 8.59095 8.37353 8.33166 7.38959 8.32502C6.3724 8.31837 5.52474 8.54441 4.84661 9.00314C4.17513 9.46188 3.66986 10.1068 3.3308 10.9378C2.99174 11.7622 2.81888 12.7229 2.81223 13.8198C2.80558 14.9168 2.97179 15.8775 3.31085 16.7019C3.64992 17.5196 4.15851 18.1579 4.83664 18.6166C5.52141 19.0753 6.3724 19.308 7.38959 19.3147C8.20733 19.328 8.90872 19.1784 9.49377 18.8659C10.0855 18.5468 10.5542 18.0814 10.8999 17.4698C11.2456 16.8581 11.4683 16.1069 11.568 15.216H8.77576V13.5406H13.7819C13.7952 13.6603 13.8052 13.8198 13.8118 14.0193C13.8185 14.2121 13.8218 14.3351 13.8218 14.3883C13.8218 15.7179 13.5659 16.9046 13.0539 17.9484C12.542 18.9922 11.7974 19.8133 10.8201 20.4116C9.84281 21.0033 8.65941 21.2992 7.26992 21.2992ZM17.2654 25.7868L19.3497 20.1125L19.3796 21.7878L14.6826 10.2298H16.8566L20.3669 19.1551H19.7286L23.0794 10.2298H25.1935L19.2499 25.7868H17.2654ZM29.4078 21.2992C28.61 21.2992 27.9419 21.1529 27.4034 20.8604C26.8648 20.5612 26.456 20.169 26.1767 19.6836C25.9042 19.1917 25.7679 18.6532 25.7679 18.0681C25.7679 17.5229 25.8643 17.0443 26.0571 16.6321C26.2499 16.2199 26.5358 15.8708 26.9147 15.585C27.2937 15.2924 27.759 15.0564 28.3108 14.8769C28.7895 14.7373 29.3314 14.6143 29.9364 14.5079C30.5414 14.4016 31.1763 14.3018 31.8411 14.2088C32.5126 14.1157 33.1774 14.0226 33.8356 13.9295L33.0777 14.3484C33.091 13.504 32.9115 12.8791 32.5392 12.4736C32.1735 12.0614 31.5419 11.8553 30.6444 11.8553C30.0793 11.8553 29.5607 11.9882 29.0887 12.2542C28.6167 12.5134 28.2876 12.9456 28.1014 13.5506L26.1568 12.9522C26.4227 12.0281 26.928 11.2935 27.6726 10.7483C28.4239 10.2032 29.4211 9.93058 30.6643 9.93058C31.6283 9.93058 32.466 10.0968 33.1774 10.4292C33.8954 10.755 34.4206 11.2735 34.7531 11.9849C34.9259 12.3373 35.0323 12.7096 35.0722 13.1018C35.1121 13.4941 35.132 13.9162 35.132 14.3683V21H33.2871V18.5368L33.6461 18.8559C33.2007 19.6803 32.6322 20.2953 31.9408 20.7008C31.256 21.0997 30.4117 21.2992 29.4078 21.2992ZM29.7768 19.5939C30.3685 19.5939 30.8771 19.4908 31.3026 19.2847C31.7281 19.072 32.0705 18.8027 32.3297 18.477C32.589 18.1512 32.7586 17.8121 32.8383 17.4598C32.9514 17.1407 33.0145 16.7817 33.0278 16.3828C33.0478 15.9839 33.0577 15.6647 33.0577 15.4254L33.7359 15.6747C33.0777 15.7744 32.4793 15.8642 31.9408 15.944C31.4023 16.0237 30.9137 16.1035 30.4749 16.1833C30.0427 16.2564 29.6571 16.3462 29.3181 16.4526C29.0322 16.5523 28.7762 16.672 28.5502 16.8116C28.3308 16.9512 28.1546 17.1207 28.0216 17.3202C27.8953 17.5196 27.8322 17.7623 27.8322 18.0482C27.8322 18.3274 27.902 18.5867 28.0416 18.826C28.1812 19.0587 28.394 19.2448 28.6798 19.3845C28.9657 19.5241 29.3314 19.5939 29.7768 19.5939ZM45.2807 21V15.7046C45.2807 15.2858 45.2441 14.857 45.171 14.4182C45.1045 13.9727 44.9715 13.5606 44.7721 13.1816C44.5793 12.8026 44.3034 12.4968 43.9444 12.2641C43.592 12.0314 43.13 11.9151 42.5582 11.9151C42.1859 11.9151 41.8335 11.9783 41.5011 12.1046C41.1687 12.2242 40.8762 12.4204 40.6236 12.6929C40.3776 12.9655 40.1814 13.3245 40.0352 13.77C39.8956 14.2154 39.8258 14.7572 39.8258 15.3955L38.5293 14.9068C38.5293 13.9295 38.7122 13.0686 39.0778 12.324C39.4435 11.5727 39.9687 10.9877 40.6535 10.5688C41.3382 10.15 42.166 9.94055 43.1366 9.94055C43.8812 9.94055 44.5062 10.0602 45.0114 10.2996C45.5167 10.5389 45.9256 10.8547 46.238 11.2469C46.5572 11.6325 46.7998 12.0547 46.966 12.5134C47.1322 12.9722 47.2453 13.4209 47.3051 13.8597C47.3649 14.2985 47.3948 14.6841 47.3948 15.0165V21H45.2807ZM37.7116 21V10.2298H39.5764V13.3412H39.8258V21H37.7116ZM53.034 21.2992C52.2362 21.2992 51.568 21.1529 51.0295 20.8604C50.491 20.5612 50.0821 20.169 49.8029 19.6836C49.5303 19.1917 49.394 18.6532 49.394 18.0681C49.394 17.5229 49.4904 17.0443 49.6832 16.6321C49.876 16.2199 50.1619 15.8708 50.5408 15.585C50.9198 15.2924 51.3852 15.0564 51.937 14.8769C52.4157 14.7373 52.9575 14.6143 53.5625 14.5079C54.1675 14.4016 54.8024 14.3018 55.4672 14.2088C56.1387 14.1157 56.8035 14.0226 57.4617 13.9295L56.7038 14.3484C56.7171 13.504 56.5376 12.8791 56.1653 12.4736C55.7996 12.0614 55.1681 11.8553 54.2705 11.8553C53.7054 11.8553 53.1869 11.9882 52.7148 12.2542C52.2428 12.5134 51.9137 12.9456 51.7276 13.5506L49.7829 12.9522C50.0489 12.0281 50.5541 11.2935 51.2987 10.7483C52.05 10.2032 53.0473 9.93058 54.2905 9.93058C55.2545 9.93058 56.0922 10.0968 56.8035 10.4292C57.5216 10.755 58.0468 11.2735 58.3792 11.9849C58.552 12.3373 58.6584 12.7096 58.6983 13.1018C58.7382 13.4941 58.7581 13.9162 58.7581 14.3683V21H56.9132V18.5368L57.2722 18.8559C56.8268 19.6803 56.2584 20.2953 55.567 20.7008C54.8822 21.0997 54.0378 21.2992 53.034 21.2992ZM53.4029 19.5939C53.9946 19.5939 54.5032 19.4908 54.9287 19.2847C55.3542 19.072 55.6966 18.8027 55.9559 18.477C56.2152 18.1512 56.3847 17.8121 56.4645 17.4598C56.5775 17.1407 56.6407 16.7817 56.654 16.3828C56.6739 15.9839 56.6839 15.6647 56.6839 15.4254L57.362 15.6747C56.7038 15.7744 56.1055 15.8642 55.567 15.944C55.0284 16.0237 54.5398 16.1035 54.101 16.1833C53.6689 16.2564 53.2833 16.3462 52.9442 16.4526C52.6583 16.5523 52.4024 16.672 52.1763 16.8116C51.9569 16.9512 51.7807 17.1207 51.6478 17.3202C51.5215 17.5196 51.4583 17.7623 51.4583 18.0482C51.4583 18.3274 51.5281 18.5867 51.6677 18.826C51.8073 19.0587 52.0201 19.2448 52.306 19.3845C52.5918 19.5241 52.9575 19.5939 53.4029 19.5939ZM65.7854 26.0859C65.207 26.0859 64.6453 25.9962 64.1001 25.8167C63.5616 25.6372 63.0696 25.3713 62.6242 25.0189C62.1787 24.6732 61.8098 24.2444 61.5172 23.7325L63.4419 22.7552C63.6746 23.2139 64.007 23.5496 64.4392 23.7624C64.8713 23.9751 65.3267 24.0815 65.8054 24.0815C66.3971 24.0815 66.9024 23.9751 67.3212 23.7624C67.74 23.5563 68.0558 23.2438 68.2686 22.825C68.488 22.4061 68.5944 21.8875 68.5877 21.2693V18.2576H68.837V10.2298H70.6819V21.2892C70.6819 21.5751 70.6719 21.8477 70.652 22.1069C70.6321 22.3662 70.5955 22.6255 70.5423 22.8848C70.3894 23.6095 70.0969 24.2078 69.6647 24.6798C69.2392 25.1519 68.6941 25.5042 68.0292 25.7369C67.3711 25.9696 66.6231 26.0859 65.7854 26.0859ZM65.6259 21.2992C64.622 21.2992 63.7544 21.0499 63.0231 20.5512C62.2984 20.0526 61.7366 19.3745 61.3377 18.5169C60.9455 17.6526 60.7494 16.6819 60.7494 15.6049C60.7494 14.5212 60.9488 13.5539 61.3477 12.7029C61.7466 11.8453 62.3117 11.1705 63.043 10.6785C63.781 10.1799 64.6552 9.93058 65.6658 9.93058C66.683 9.93058 67.5373 10.1799 68.2287 10.6785C68.9268 11.1705 69.452 11.8453 69.8043 12.7029C70.1633 13.5606 70.3429 14.5279 70.3429 15.6049C70.3429 16.6819 70.1633 17.6493 69.8043 18.5069C69.4453 19.3645 68.9168 20.046 68.2187 20.5512C67.5207 21.0499 66.6564 21.2992 65.6259 21.2992ZM65.9151 19.4144C66.5999 19.4144 67.1583 19.2515 67.5905 18.9257C68.0226 18.6 68.3384 18.1512 68.5378 17.5794C68.7373 17.0077 68.837 16.3495 68.837 15.6049C68.837 14.8603 68.734 14.2021 68.5279 13.6304C68.3284 13.0586 68.0159 12.6132 67.5905 12.2941C67.1716 11.9749 66.6364 11.8154 65.9849 11.8154C65.2935 11.8154 64.725 11.9849 64.2796 12.324C63.8342 12.663 63.5018 13.1184 63.2824 13.6902C63.0696 14.2619 62.9632 14.9002 62.9632 15.6049C62.9632 16.3163 63.0696 16.9612 63.2824 17.5396C63.5018 18.1113 63.8275 18.5667 64.2597 18.9058C64.6984 19.2448 65.2503 19.4144 65.9151 19.4144ZM77.5409 21.2892C76.7963 21.2892 76.1714 21.1695 75.6661 20.9302C75.1608 20.6909 74.7487 20.3784 74.4295 19.9928C74.1171 19.6005 73.8777 19.175 73.7115 18.7163C73.5453 18.2576 73.4323 17.8088 73.3725 17.37C73.3126 16.9312 73.2827 16.5456 73.2827 16.2132V10.2298H75.3969V15.5251C75.3969 15.944 75.4301 16.3761 75.4966 16.8215C75.5697 17.2603 75.7027 17.6692 75.8955 18.0482C76.0949 18.4271 76.3708 18.7329 76.7232 18.9656C77.0822 19.1983 77.5476 19.3147 78.1193 19.3147C78.4916 19.3147 78.844 19.2548 79.1764 19.1352C79.5088 19.0088 79.798 18.8094 80.044 18.5368C80.2967 18.2642 80.4928 17.9052 80.6324 17.4598C80.7787 17.0143 80.8518 16.4725 80.8518 15.8343L82.1482 16.3229C82.1482 17.3002 81.9654 18.1645 81.5997 18.9158C81.2341 19.6604 80.7089 20.2421 80.0241 20.6609C79.3393 21.0798 78.5116 21.2892 77.5409 21.2892ZM81.1011 21V17.8886H80.8518V10.2298H82.956V21H81.1011ZM85.7529 21V10.2298H87.6078V12.8425L87.3485 12.5035C87.4815 12.1578 87.6544 11.842 87.8671 11.5561C88.0798 11.2636 88.3258 11.0242 88.6051 10.8381C88.8776 10.6386 89.1801 10.4857 89.5126 10.3793C89.8516 10.2663 90.1973 10.1998 90.5497 10.1799C90.902 10.1533 91.2411 10.1699 91.5669 10.2298V12.1844C91.2145 12.0913 90.8223 12.0647 90.3901 12.1046C89.9646 12.1445 89.5724 12.2808 89.2134 12.5134C88.8743 12.7328 88.6051 12.9988 88.4056 13.3112C88.2128 13.6237 88.0732 13.9727 87.9868 14.3583C87.9003 14.7373 87.8571 15.1395 87.8571 15.565V21H85.7529ZM97.5248 21.2892C96.7802 21.2892 96.1552 21.1695 95.65 20.9302C95.1447 20.6909 94.7325 20.3784 94.4134 19.9928C94.1009 19.6005 93.8616 19.175 93.6954 18.7163C93.5292 18.2576 93.4161 17.8088 93.3563 17.37C93.2965 16.9312 93.2665 16.5456 93.2665 16.2132V10.2298H95.3807V15.5251C95.3807 15.944 95.4139 16.3761 95.4804 16.8215C95.5536 17.2603 95.6865 17.6692 95.8793 18.0482C96.0788 18.4271 96.3547 18.7329 96.707 18.9656C97.0661 19.1983 97.5314 19.3147 98.1032 19.3147C98.4755 19.3147 98.8279 19.2548 99.1603 19.1352C99.4927 19.0088 99.7819 18.8094 100.028 18.5368C100.281 18.2642 100.477 17.9052 100.616 17.4598C100.763 17.0143 100.836 16.4725 100.836 15.8343L102.132 16.3229C102.132 17.3002 101.949 18.1645 101.584 18.9158C101.218 19.6604 100.693 20.2421 100.008 20.6609C99.3231 21.0798 98.4954 21.2892 97.5248 21.2892ZM101.085 21V17.8886H100.836V10.2298H102.94V21H101.085ZM109.331 20.99L109.341 19.1352L115.593 13.5306C116.099 13.0852 116.441 12.6597 116.621 12.2542C116.807 11.8486 116.9 11.4431 116.9 11.0375C116.9 10.5256 116.787 10.0669 116.561 9.66132C116.335 9.24913 116.022 8.92336 115.623 8.68402C115.224 8.44469 114.766 8.32502 114.247 8.32502C113.715 8.32502 113.24 8.45133 112.821 8.70397C112.409 8.94996 112.086 9.27905 111.854 9.69124C111.621 10.1034 111.508 10.5489 111.515 11.0276H109.381C109.381 10.0968 109.59 9.28237 110.009 8.5843C110.434 7.87958 111.016 7.3311 111.754 6.93885C112.492 6.53995 113.336 6.3405 114.287 6.3405C115.191 6.3405 116.002 6.5466 116.72 6.95879C117.438 7.36434 118.003 7.92279 118.416 8.63416C118.835 9.34553 119.044 10.1566 119.044 11.0674C119.044 11.7256 118.958 12.2841 118.785 12.7428C118.612 13.2015 118.353 13.627 118.007 14.0193C117.661 14.4115 117.229 14.837 116.71 15.2958L111.884 19.6039L111.654 19.0055H119.044V20.99H109.331ZM121.795 21V18.7961H123.999V21H121.795ZM132.149 21.2992C131.171 21.2992 130.307 21.0864 129.556 20.6609C128.805 20.2288 128.213 19.6371 127.781 18.8858C127.355 18.1346 127.142 17.2703 127.142 16.293V11.3467C127.142 10.3694 127.355 9.50509 127.781 8.75383C128.213 8.00257 128.805 7.4142 129.556 6.98871C130.307 6.55657 131.171 6.3405 132.149 6.3405C133.126 6.3405 133.99 6.55657 134.742 6.98871C135.493 7.4142 136.081 8.00257 136.507 8.75383C136.939 9.50509 137.155 10.3694 137.155 11.3467V16.293C137.155 17.2703 136.939 18.1346 136.507 18.8858C136.081 19.6371 135.493 20.2288 134.742 20.6609C133.99 21.0864 133.126 21.2992 132.149 21.2992ZM132.149 19.3047C132.681 19.3047 133.163 19.1784 133.595 18.9257C134.033 18.6664 134.382 18.3207 134.642 17.8886C134.901 17.4498 135.031 16.9612 135.031 16.4226V11.1971C135.031 10.6652 134.901 10.1832 134.642 9.75108C134.382 9.31229 134.033 8.96658 133.595 8.71394C133.163 8.45466 132.681 8.32502 132.149 8.32502C131.617 8.32502 131.131 8.45466 130.693 8.71394C130.261 8.96658 129.915 9.31229 129.656 9.75108C129.396 10.1832 129.267 10.6652 129.267 11.1971V16.4226C129.267 16.9612 129.396 17.4498 129.656 17.8886C129.915 18.3207 130.261 18.6664 130.693 18.9257C131.131 19.1784 131.617 19.3047 132.149 19.3047Z" fill="url(#paint0_linear_986_73)"/>
<defs>
<linearGradient id="paint0_linear_986_73" x1="69.5" y1="0" x2="69.5" y2="27" gradientUnits="userSpaceOnUse">
<stop offset="0.46"/>
<stop offset="1"/>
</linearGradient>
</defs>
</svg>
