<svg width="240" height="74" viewBox="0 0 240 74" fill="none" xmlns="http://www.w3.org/2000/svg">
<g filter="url(#filter0_d_927_68)">
<g opacity="0.3" filter="url(#filter1_f_927_68)">
<line x1="53.4258" y1="43.8879" x2="186.807" y2="43.8879" stroke="url(#paint0_linear_927_68)" stroke-width="17.4518"/>
</g>
<line x1="53.4258" y1="51.0556" x2="186.807" y2="51.0556" stroke="url(#paint1_linear_927_68)" stroke-width="3.11639"/>
<g filter="url(#filter2_d_927_68)">
<path d="M62.0048 40.9426C61.0341 40.9426 60.1299 40.7565 59.2922 40.3842C58.4612 40.0052 57.7332 39.4833 57.1083 38.8185C56.49 38.147 56.0047 37.3725 55.6523 36.4949C55.3066 35.6173 55.1337 34.6833 55.1337 33.6927C55.1337 32.6489 55.3199 31.6882 55.6922 30.8106C56.0645 29.933 56.5731 29.1718 57.218 28.5269C57.8629 27.8754 58.5975 27.3701 59.4219 27.0111C60.2529 26.6521 61.1239 26.4726 62.0347 26.4726C63.0652 26.4726 64.0558 26.7119 65.0065 27.1906C65.9572 27.6693 66.7849 28.3873 67.4896 29.3447L65.6347 30.3519C65.156 29.7535 64.5976 29.3015 63.9594 28.9956C63.3278 28.6898 62.6796 28.5369 62.0147 28.5369C61.3698 28.5369 60.7582 28.6699 60.1798 28.9358C59.6014 29.1951 59.0895 29.5607 58.644 30.0328C58.1986 30.4982 57.8462 31.0466 57.587 31.6782C57.3343 32.3032 57.208 32.9846 57.208 33.7226C57.208 34.4339 57.331 35.1021 57.577 35.727C57.8296 36.352 58.1753 36.9005 58.6141 37.3725C59.0596 37.8379 59.5715 38.2035 60.1499 38.4695C60.7349 38.7354 61.3599 38.8684 62.0247 38.8684C62.5167 38.8684 62.9887 38.7886 63.4408 38.629C63.8929 38.4695 64.3117 38.2434 64.6973 37.9509C65.0896 37.6517 65.432 37.296 65.7245 36.8838C66.017 36.4717 66.2497 36.0129 66.4225 35.5076H63.4607V33.6727H68.8558C68.8691 34.67 68.6963 35.6074 68.3373 36.4849C67.9849 37.3625 67.4929 38.1371 66.8613 38.8085C66.2364 39.4734 65.5084 39.9953 64.6774 40.3742C63.8463 40.7532 62.9555 40.9426 62.0048 40.9426ZM77.1471 30.7109H79.361L73.8961 45.6696H71.6922L73.4972 40.6833L69.9171 30.7109H72.1809L74.5344 37.8412L77.1471 30.7109ZM88.2613 30.7109H90.3355V40.6833H88.2513L88.1715 39.2373C87.879 39.7493 87.4834 40.1615 86.9848 40.4739C86.4862 40.7864 85.8978 40.9426 85.2197 40.9426C84.4884 40.9426 83.8003 40.8063 83.1554 40.5338C82.5105 40.2545 81.9421 39.8689 81.4501 39.377C80.9648 38.885 80.5858 38.3199 80.3132 37.6816C80.0407 37.0368 79.9044 36.3453 79.9044 35.6074C79.9044 34.896 80.0373 34.2279 80.3033 33.6029C80.5692 32.9713 80.9382 32.4195 81.4102 31.9475C81.8822 31.4755 82.4274 31.1065 83.0457 30.8405C83.6706 30.568 84.3388 30.4317 85.0501 30.4317C85.7748 30.4317 86.413 30.5979 86.9649 30.9303C87.5233 31.2561 87.9854 31.6749 88.351 32.1868L88.2613 30.7109ZM85.1698 38.9382C85.7549 38.9382 86.2668 38.7952 86.7056 38.5094C87.1444 38.2168 87.4834 37.8246 87.7228 37.3326C87.9687 36.8406 88.0917 36.2955 88.0917 35.6971C88.0917 35.0921 87.9687 34.5436 87.7228 34.0517C87.4768 33.5597 87.1344 33.1708 86.6956 32.8849C86.2635 32.5924 85.7549 32.4461 85.1698 32.4461C84.5914 32.4461 84.0629 32.5924 83.5842 32.8849C83.1055 33.1774 82.7266 33.5697 82.4473 34.0616C82.1681 34.5536 82.0285 35.0988 82.0285 35.6971C82.0285 36.3021 82.1714 36.8506 82.4573 37.3426C82.7498 37.8279 83.1321 38.2168 83.6041 38.5094C84.0828 38.7952 84.6047 38.9382 85.1698 38.9382ZM101.301 34.4306V40.6833H99.2265V34.9392C99.2265 34.4938 99.1168 34.0882 98.8974 33.7226C98.6846 33.3569 98.3954 33.0677 98.0298 32.855C97.6707 32.6356 97.2652 32.5259 96.8131 32.5259C96.3743 32.5259 95.9721 32.6356 95.6065 32.855C95.2408 33.0677 94.9483 33.3569 94.7289 33.7226C94.5095 34.0882 94.3998 34.4938 94.3998 34.9392V40.6833H92.3255V30.7109H94.3998V31.768C94.7455 31.3558 95.171 31.03 95.6763 30.7907C96.1815 30.5513 96.7267 30.4317 97.3117 30.4317C98.0497 30.4317 98.7212 30.6112 99.3262 30.9702C99.9312 31.3292 100.41 31.8112 100.762 32.4162C101.121 33.0212 101.301 33.6927 101.301 34.4306ZM110.855 30.7109H112.929V40.6833H110.845L110.765 39.2373C110.473 39.7493 110.077 40.1615 109.579 40.4739C109.08 40.7864 108.492 40.9426 107.814 40.9426C107.082 40.9426 106.394 40.8063 105.749 40.5338C105.104 40.2545 104.536 39.8689 104.044 39.377C103.559 38.885 103.18 38.3199 102.907 37.6816C102.634 37.0368 102.498 36.3453 102.498 35.6074C102.498 34.896 102.631 34.2279 102.897 33.6029C103.163 32.9713 103.532 32.4195 104.004 31.9475C104.476 31.4755 105.021 31.1065 105.64 30.8405C106.264 30.568 106.933 30.4317 107.644 30.4317C108.369 30.4317 109.007 30.5979 109.559 30.9303C110.117 31.2561 110.579 31.6749 110.945 32.1868L110.855 30.7109ZM107.764 38.9382C108.349 38.9382 108.861 38.7952 109.299 38.5094C109.738 38.2168 110.077 37.8246 110.317 37.3326C110.563 36.8406 110.686 36.2955 110.686 35.6971C110.686 35.0921 110.563 34.5436 110.317 34.0517C110.071 33.5597 109.728 33.1708 109.289 32.8849C108.857 32.5924 108.349 32.4461 107.764 32.4461C107.185 32.4461 106.657 32.5924 106.178 32.8849C105.699 33.1774 105.32 33.5697 105.041 34.0616C104.762 34.5536 104.622 35.0988 104.622 35.6971C104.622 36.3021 104.765 36.8506 105.051 37.3426C105.344 37.8279 105.726 38.2168 106.198 38.5094C106.677 38.7952 107.199 38.9382 107.764 38.9382ZM122.314 30.7109H124.388V40.9426C124.388 41.6274 124.242 42.259 123.949 42.8374C123.663 43.4158 123.274 43.9144 122.782 44.3333C122.29 44.7588 121.725 45.0878 121.087 45.3205C120.455 45.5532 119.794 45.6696 119.102 45.6696C118.404 45.6696 117.733 45.52 117.088 45.2208C116.443 44.9283 115.875 44.5294 115.383 44.0241C114.897 43.5188 114.535 42.9471 114.296 42.3089L116.2 41.4512C116.333 41.8634 116.546 42.2291 116.839 42.5482C117.138 42.8673 117.484 43.12 117.876 43.3061C118.275 43.4923 118.684 43.5853 119.102 43.5853C119.515 43.5853 119.91 43.5188 120.289 43.3859C120.675 43.2596 121.017 43.0801 121.316 42.8474C121.622 42.6147 121.865 42.3355 122.044 42.0097C122.224 41.6839 122.314 41.3282 122.314 40.9426V39.2573C121.988 39.7626 121.569 40.1714 121.057 40.4839C120.545 40.7897 119.95 40.9426 119.272 40.9426C118.567 40.9426 117.902 40.8063 117.278 40.5338C116.653 40.2612 116.104 39.8856 115.632 39.4069C115.16 38.9216 114.791 38.3631 114.525 37.7315C114.259 37.0999 114.126 36.4218 114.126 35.6971C114.126 34.9725 114.259 34.2943 114.525 33.6627C114.791 33.0245 115.16 32.4661 115.632 31.9874C116.104 31.502 116.653 31.1231 117.278 30.8505C117.902 30.5779 118.567 30.4416 119.272 30.4416C119.95 30.4416 120.545 30.5979 121.057 30.9103C121.569 31.2162 121.988 31.625 122.314 32.137V30.7109ZM119.292 38.9382C119.87 38.9382 120.376 38.7919 120.808 38.4994C121.24 38.2002 121.576 37.8046 121.815 37.3127C122.054 36.8207 122.174 36.2822 122.174 35.6971C122.174 35.0988 122.051 34.5569 121.805 34.0716C121.566 33.5796 121.23 33.1874 120.798 32.8949C120.366 32.5957 119.864 32.4461 119.292 32.4461C118.733 32.4461 118.222 32.5924 117.756 32.8849C117.297 33.1774 116.932 33.5697 116.659 34.0616C116.387 34.5536 116.25 35.0988 116.25 35.6971C116.25 36.2955 116.387 36.8406 116.659 37.3326C116.938 37.8246 117.307 38.2168 117.766 38.5094C118.232 38.7952 118.74 38.9382 119.292 38.9382ZM126.129 36.9437V30.7109H128.203V36.4351C128.203 36.8805 128.313 37.2861 128.532 37.6517C128.752 38.0174 129.044 38.3099 129.41 38.5293C129.776 38.742 130.178 38.8484 130.617 38.8484C131.062 38.8484 131.464 38.742 131.823 38.5293C132.189 38.3099 132.478 38.0174 132.691 37.6517C132.91 37.2861 133.02 36.8805 133.02 36.4351V30.7109H135.094L135.104 40.6833H133.03L133.02 39.6063C132.681 40.0185 132.259 40.3443 131.753 40.5836C131.248 40.823 130.706 40.9426 130.128 40.9426C129.39 40.9426 128.719 40.7631 128.114 40.4041C127.509 40.0451 127.027 39.5631 126.668 38.9581C126.309 38.3531 126.129 37.6816 126.129 36.9437ZM137.104 40.6833V30.7109H139.178V31.768C139.524 31.3558 139.95 31.03 140.455 30.7907C140.96 30.5513 141.505 30.4317 142.09 30.4317C142.463 30.4317 142.832 30.4815 143.197 30.5813L142.37 32.6755C142.11 32.5757 141.851 32.5259 141.592 32.5259C141.153 32.5259 140.751 32.6356 140.385 32.855C140.019 33.0677 139.727 33.3569 139.508 33.7226C139.288 34.0882 139.178 34.4938 139.178 34.9392V40.6833H137.104ZM144.009 36.9437V30.7109H146.084V36.4351C146.084 36.8805 146.193 37.2861 146.413 37.6517C146.632 38.0174 146.925 38.3099 147.29 38.5293C147.656 38.742 148.058 38.8484 148.497 38.8484C148.942 38.8484 149.345 38.742 149.704 38.5293C150.069 38.3099 150.358 38.0174 150.571 37.6517C150.791 37.2861 150.9 36.8805 150.9 36.4351V30.7109H152.975L152.984 40.6833H150.91L150.9 39.6063C150.561 40.0185 150.139 40.3443 149.634 40.5836C149.128 40.823 148.587 40.9426 148.008 40.9426C147.27 40.9426 146.599 40.7631 145.994 40.4041C145.389 40.0451 144.907 39.5631 144.548 38.9581C144.189 38.3531 144.009 37.6816 144.009 36.9437ZM159.377 40.6833V38.8384C159.849 38.4462 160.391 37.9908 161.002 37.4722C161.614 36.947 162.236 36.3919 162.867 35.8068C163.499 35.2151 164.081 34.6267 164.613 34.0417C165.144 33.45 165.573 32.8915 165.899 32.3663C166.231 31.8345 166.398 31.3724 166.398 30.9802C166.398 30.5347 166.288 30.1292 166.069 29.7635C165.856 29.3912 165.567 29.0954 165.201 28.876C164.835 28.6499 164.43 28.5369 163.984 28.5369C163.539 28.5369 163.13 28.6499 162.758 28.876C162.392 29.0954 162.096 29.3912 161.87 29.7635C161.651 30.1292 161.541 30.5347 161.541 30.9802H159.467C159.467 30.1358 159.673 29.3746 160.085 28.6965C160.504 28.0117 161.052 27.4699 161.73 27.071C162.415 26.6654 163.167 26.4626 163.984 26.4626C164.809 26.4626 165.56 26.6654 166.238 27.071C166.916 27.4765 167.458 28.0217 167.864 28.7064C168.269 29.3846 168.472 30.1425 168.472 30.9802C168.472 31.4455 168.375 31.9242 168.183 32.4162C167.99 32.9082 167.721 33.4101 167.375 33.922C167.036 34.4339 166.64 34.9525 166.188 35.4777C165.736 36.0029 165.251 36.5282 164.732 37.0534C164.214 37.5786 163.685 38.0972 163.147 38.6091H168.592V40.6833H159.377ZM171.664 40.9426C171.358 40.9426 171.098 40.8363 170.886 40.6235C170.68 40.4108 170.577 40.1515 170.577 39.8457C170.577 39.5465 170.68 39.2905 170.886 39.0778C171.098 38.865 171.358 38.7587 171.664 38.7587C171.969 38.7587 172.229 38.865 172.441 39.0778C172.654 39.2905 172.76 39.5465 172.76 39.8457C172.76 40.1515 172.654 40.4108 172.441 40.6235C172.229 40.8363 171.969 40.9426 171.664 40.9426ZM179.98 40.9426C179.155 40.9426 178.411 40.7565 177.746 40.3842C177.088 40.0052 176.519 39.4833 176.041 38.8185C175.562 38.1537 175.196 37.3858 174.944 36.5149C174.691 35.6373 174.565 34.6999 174.565 33.7026C174.565 32.7054 174.691 31.768 174.944 30.8904C175.196 30.0128 175.562 29.2449 176.041 28.5868C176.519 27.9219 177.088 27.4034 177.746 27.0311C178.411 26.6521 179.155 26.4626 179.98 26.4626C180.791 26.4626 181.529 26.6521 182.194 27.0311C182.858 27.4034 183.424 27.9219 183.889 28.5868C184.361 29.2449 184.723 30.0128 184.976 30.8904C185.229 31.768 185.355 32.7054 185.355 33.7026C185.355 34.6999 185.229 35.6373 184.976 36.5149C184.723 37.3858 184.361 38.1537 183.889 38.8185C183.424 39.4833 182.858 40.0052 182.194 40.3842C181.529 40.7565 180.791 40.9426 179.98 40.9426ZM179.98 38.8684C180.744 38.8684 181.379 38.629 181.885 38.1503C182.396 37.665 182.779 37.0301 183.031 36.2456C183.284 35.4611 183.41 34.6135 183.41 33.7026C183.41 32.7453 183.277 31.8777 183.011 31.0998C182.752 30.3153 182.367 29.6937 181.855 29.235C181.349 28.7696 180.724 28.5369 179.98 28.5369C179.388 28.5369 178.873 28.6765 178.434 28.9557C178.002 29.235 177.643 29.6173 177.357 30.1026C177.078 30.5879 176.865 31.1397 176.719 31.758C176.579 32.3763 176.509 33.0245 176.509 33.7026C176.509 34.6135 176.639 35.4611 176.898 36.2456C177.158 37.0301 177.543 37.665 178.055 38.1503C178.574 38.629 179.215 38.8684 179.98 38.8684Z" fill="url(#paint2_linear_927_68)"/>
</g>
<g filter="url(#filter3_i_927_68)">
<rect x="182.069" y="10.4355" width="36.0594" height="15.8119" rx="7.90594" fill="url(#paint3_linear_927_68)"/>
<rect x="182.421" y="10.787" width="35.3564" height="15.1089" rx="7.55446" stroke="#737373" stroke-width="0.70297"/>
<path d="M189.797 21.8416V14.9524H192.779C193.232 14.9524 193.626 15.0279 193.96 15.1788C194.295 15.3297 194.554 15.5429 194.738 15.8185C194.922 16.0875 195.013 16.4057 195.013 16.7731C195.013 17.1078 194.928 17.403 194.758 17.6589C194.587 17.9148 194.347 18.1182 194.039 18.2691C194.426 18.4068 194.728 18.6168 194.945 18.8989C195.168 19.1745 195.279 19.4993 195.279 19.8732C195.279 20.2735 195.181 20.6212 194.984 20.9164C194.787 21.2117 194.512 21.4413 194.157 21.6054C193.803 21.7628 193.386 21.8416 192.907 21.8416H189.797ZM190.831 17.8754H192.72C193.107 17.8754 193.416 17.7835 193.645 17.5998C193.875 17.4161 193.99 17.1668 193.99 16.8519C193.99 16.5369 193.875 16.2876 193.645 16.1039C193.416 15.9202 193.107 15.8283 192.72 15.8283H190.831V17.8754ZM190.831 20.9657H192.829C193.262 20.9657 193.603 20.864 193.852 20.6606C194.108 20.4572 194.236 20.1816 194.236 19.8339C194.236 19.4927 194.108 19.2204 193.852 19.017C193.603 18.8071 193.262 18.7021 192.829 18.7021H190.831V20.9657ZM198.587 21.9301C198.095 21.9301 197.649 21.8153 197.249 21.5857C196.855 21.356 196.54 21.0444 196.304 20.6507C196.074 20.2571 195.96 19.8175 195.96 19.3319C195.96 18.853 196.071 18.42 196.294 18.0329C196.517 17.6392 196.819 17.3275 197.2 17.0979C197.58 16.8617 198.003 16.7436 198.469 16.7436C198.935 16.7436 199.348 16.8617 199.709 17.0979C200.07 17.3275 200.355 17.6425 200.565 18.0427C200.782 18.4364 200.89 18.8825 200.89 19.3812V19.6567H196.944C196.996 19.9323 197.098 20.1783 197.249 20.3948C197.406 20.6114 197.603 20.7819 197.839 20.9066C198.082 21.0313 198.344 21.0936 198.627 21.0936C198.869 21.0936 199.102 21.0575 199.325 20.9853C199.555 20.9066 199.745 20.7951 199.896 20.6507L200.526 21.2707C200.231 21.4938 199.926 21.6611 199.611 21.7727C199.302 21.8776 198.961 21.9301 198.587 21.9301ZM196.954 18.9186H199.916C199.876 18.6562 199.785 18.4265 199.64 18.2297C199.502 18.0263 199.329 17.8688 199.119 17.7573C198.915 17.6392 198.692 17.5801 198.449 17.5801C198.2 17.5801 197.97 17.6359 197.761 17.7475C197.551 17.859 197.373 18.0165 197.229 18.2198C197.091 18.4167 196.999 18.6496 196.954 18.9186ZM203.829 21.9301C203.343 21.9301 202.973 21.8186 202.717 21.5955C202.461 21.3659 202.333 21.0345 202.333 20.6015V17.6589H201.27V16.8322H202.333V15.5528L203.307 15.3166V16.8322H204.783V17.6589H203.307V20.3752C203.307 20.631 203.363 20.8147 203.474 20.9263C203.593 21.0313 203.783 21.0838 204.045 21.0838C204.183 21.0838 204.304 21.0739 204.409 21.0542C204.521 21.0345 204.639 21.005 204.764 20.9657V21.7923C204.633 21.8383 204.478 21.8711 204.301 21.8908C204.131 21.917 203.973 21.9301 203.829 21.9301ZM207.093 21.9301C206.732 21.9301 206.414 21.8678 206.138 21.7431C205.863 21.6119 205.646 21.4315 205.489 21.2018C205.331 20.9722 205.253 20.7065 205.253 20.4047C205.253 19.9323 205.433 19.5616 205.794 19.2926C206.155 19.017 206.65 18.8792 207.28 18.8792C207.772 18.8792 208.228 18.9744 208.648 19.1646V18.6332C208.648 18.2723 208.543 18.0033 208.333 17.8262C208.13 17.649 207.828 17.5605 207.428 17.5605C207.198 17.5605 206.958 17.5965 206.709 17.6687C206.46 17.7343 206.181 17.8393 205.873 17.9837L205.508 17.2455C205.889 17.0684 206.243 16.9404 206.571 16.8617C206.899 16.7764 207.231 16.7338 207.565 16.7338C208.215 16.7338 208.717 16.888 209.071 17.1963C209.432 17.5047 209.612 17.9443 209.612 18.5151V21.8416H208.648V21.4085C208.425 21.5857 208.185 21.7169 207.93 21.8022C207.674 21.8875 207.395 21.9301 207.093 21.9301ZM206.197 20.385C206.197 20.6278 206.299 20.8246 206.502 20.9755C206.712 21.1264 206.985 21.2018 207.319 21.2018C207.582 21.2018 207.821 21.1625 208.038 21.0838C208.261 21.005 208.464 20.8836 208.648 20.7196V19.8732C208.458 19.7617 208.258 19.683 208.048 19.637C207.844 19.5845 207.615 19.5583 207.359 19.5583C206.998 19.5583 206.712 19.6338 206.502 19.7847C206.299 19.929 206.197 20.1291 206.197 20.385Z" fill="#D4D4D4"/>
</g>
</g>
<defs>
<filter id="filter0_d_927_68" x="-17.7851" y="-4.53772" width="275.57" height="78.1348" filterUnits="userSpaceOnUse" color-interpolation-filters="sRGB">
<feFlood flood-opacity="0" result="BackgroundImageFix"/>
<feColorMatrix in="SourceAlpha" type="matrix" values="0 0 0 0 0 0 0 0 0 0 0 0 0 0 0 0 0 0 127 0" result="hardAlpha"/>
<feOffset dy="2.81188"/>
<feGaussianBlur stdDeviation="8.89257"/>
<feComposite in2="hardAlpha" operator="out"/>
<feColorMatrix type="matrix" values="0 0 0 0 0 0 0 0 0 0 0 0 0 0 0 0 0 0 0.43 0"/>
<feBlend mode="normal" in2="BackgroundImageFix" result="effect1_dropShadow_927_68"/>
<feBlend mode="normal" in="SourceGraphic" in2="effect1_dropShadow_927_68" result="shape"/>
</filter>
<filter id="filter1_f_927_68" x="34.2288" y="15.9649" width="171.776" height="55.8458" filterUnits="userSpaceOnUse" color-interpolation-filters="sRGB">
<feFlood flood-opacity="0" result="BackgroundImageFix"/>
<feBlend mode="normal" in="SourceGraphic" in2="BackgroundImageFix" result="shape"/>
<feGaussianBlur stdDeviation="9.59848" result="effect1_foregroundBlur_927_68"/>
</filter>
<filter id="filter2_d_927_68" x="49.1503" y="21.3102" width="142.188" height="31.174" filterUnits="userSpaceOnUse" color-interpolation-filters="sRGB">
<feFlood flood-opacity="0" result="BackgroundImageFix"/>
<feColorMatrix in="SourceAlpha" type="matrix" values="0 0 0 0 0 0 0 0 0 0 0 0 0 0 0 0 0 0 127 0" result="hardAlpha"/>
<feOffset dy="0.831037"/>
<feGaussianBlur stdDeviation="2.99173"/>
<feComposite in2="hardAlpha" operator="out"/>
<feColorMatrix type="matrix" values="0 0 0 0 0 0 0 0 0 0 0 0 0 0 0 0 0 0 0.25 0"/>
<feBlend mode="normal" in2="BackgroundImageFix" result="effect1_dropShadow_927_68"/>
<feBlend mode="normal" in="SourceGraphic" in2="effect1_dropShadow_927_68" result="shape"/>
</filter>
<filter id="filter3_i_927_68" x="182.069" y="10.4355" width="36.0596" height="18.6236" filterUnits="userSpaceOnUse" color-interpolation-filters="sRGB">
<feFlood flood-opacity="0" result="BackgroundImageFix"/>
<feBlend mode="normal" in="SourceGraphic" in2="BackgroundImageFix" result="shape"/>
<feColorMatrix in="SourceAlpha" type="matrix" values="0 0 0 0 0 0 0 0 0 0 0 0 0 0 0 0 0 0 127 0" result="hardAlpha"/>
<feOffset dy="2.81188"/>
<feGaussianBlur stdDeviation="3.6203"/>
<feComposite in2="hardAlpha" operator="arithmetic" k2="-1" k3="1"/>
<feColorMatrix type="matrix" values="0 0 0 0 0 0 0 0 0 0 0 0 0 0 0 0 0 0 0.53 0"/>
<feBlend mode="normal" in2="shape" result="effect1_innerShadow_927_68"/>
</filter>
<linearGradient id="paint0_linear_927_68" x1="49.79" y1="35.6138" x2="105.376" y2="-42.464" gradientUnits="userSpaceOnUse">
<stop stop-color="#52E063"/>
<stop offset="0.125154" stop-color="#EDE230"/>
<stop offset="0.331682" stop-color="#9A5DFF"/>
<stop offset="0.770833" stop-color="#00B3FF"/>
<stop offset="1" stop-color="#40CC8F"/>
</linearGradient>
<linearGradient id="paint1_linear_927_68" x1="49.79" y1="35.6138" x2="105.376" y2="-42.464" gradientUnits="userSpaceOnUse">
<stop stop-color="#52E063"/>
<stop offset="0.125154" stop-color="#EDE230"/>
<stop offset="0.331682" stop-color="#9A5DFF"/>
<stop offset="0.648185" stop-color="#00B3FF"/>
<stop offset="1" stop-color="#40CC8F"/>
</linearGradient>
<linearGradient id="paint2_linear_927_68" x1="120.336" y1="21.6833" x2="120.336" y2="45.6833" gradientUnits="userSpaceOnUse">
<stop offset="0.46" stop-color="white"/>
<stop offset="1" stop-color="#737373" stop-opacity="0"/>
</linearGradient>
<linearGradient id="paint3_linear_927_68" x1="200.099" y1="10.4355" x2="200.099" y2="26.2474" gradientUnits="userSpaceOnUse">
<stop stop-color="#333333" stop-opacity="0.34"/>
<stop offset="1" stop-opacity="0.19"/>
</linearGradient>
</defs>
</svg>
