<svg width="408" height="408" viewBox="0 0 408 408" fill="none" xmlns="http://www.w3.org/2000/svg">
<path d="M204 94C204 42.0852 246.085 0 298 0H408V110C408 161.915 365.915 204 314 204H204V94Z" fill="white" fill-opacity="0.08"/>
<path d="M408 298C408 246.085 365.915 204 314 204H204V314C204 365.915 246.085 408 298 408H408V298Z" fill="white" fill-opacity="0.08"/>
<path d="M0 110C0 161.915 42.0852 204 94 204H204V94C204 42.0852 161.915 0 110 0H0V110Z" fill="white" fill-opacity="0.08"/>
<path d="M0 298C0 246.085 42.0852 204 94 204H204V314C204 365.915 161.915 408 110 408H0V298Z" fill="white" fill-opacity="0.08"/>
</svg>
