<svg width="537" height="663" viewBox="0 0 537 663" fill="none" xmlns="http://www.w3.org/2000/svg">
<path d="M108.235 414.982C135.931 443.91 175.74 454.258 212.091 445.686C201.945 481.629 210.551 521.851 238.247 550.779L314.317 630.236L324.69 641.071L335.525 630.697L414.982 554.627C443.91 526.931 454.258 487.122 445.686 450.771C481.629 460.917 521.851 452.312 550.779 424.616L630.236 348.545L641.071 338.172L630.697 327.337L554.627 247.881C526.931 218.952 487.122 208.604 450.771 217.176C460.917 181.233 452.312 141.012 424.616 112.083L348.545 32.6268L338.172 21.7918L327.337 32.1651L247.881 108.235C218.952 135.931 208.604 175.74 217.176 212.091C181.233 201.945 141.012 210.551 112.083 238.247L32.6268 314.317L21.7918 324.69L32.1651 335.525L108.235 414.982Z" fill="white" fill-opacity="0.08" stroke="url(#paint0_linear_989_67)" stroke-width="30"/>
<defs>
<linearGradient id="paint0_linear_989_67" x1="331.431" y1="43" x2="368.5" y2="529.5" gradientUnits="userSpaceOnUse">
<stop stop-color="#E5E8ED"/>
<stop offset="0.375" stop-color="#CACCCF" stop-opacity="0.39"/>
<stop offset="1" stop-color="#B3B5B8" stop-opacity="0"/>
</linearGradient>
</defs>
</svg>
