<svg width="2005" height="1031" viewBox="0 0 2005 1031" fill="none" xmlns="http://www.w3.org/2000/svg">
<g clip-path="url(#clip0_992_81)">
<rect width="2005" height="1031" fill="#F3F4F6"/>
<g opacity="0.4" filter="url(#filter0_f_992_81)">
<path d="M1405.64 130.997C1644.34 320.636 1767.68 562.673 1681.14 671.601C1594.6 780.529 1330.95 715.099 1092.25 525.46C853.547 335.82 354.504 46.0522 441.044 -62.8758C527.584 -171.804 993.544 -423.376 1405.64 130.997Z" fill="#40CC8F"/>
</g>
<circle cx="1469.45" cy="519.052" r="360.784" fill="white" fill-opacity="0.46" stroke="white" stroke-width="3.8794"/>
<circle cx="1468.8" cy="519.699" r="436.433" stroke="white" stroke-width="3.8794"/>
<path d="M1910.69 503.854C1932.06 745.016 1753.88 957.836 1512.71 979.2C1271.55 1000.56 1058.73 822.384 1037.37 581.222" stroke="url(#paint0_linear_992_81)" stroke-width="3.8794"/>
<path d="M1075.97 735.108C905.84 352.918 1077.75 -94.8245 1459.94 -264.954C1842.13 -435.083 2289.87 -263.174 2460 119.016" stroke="url(#paint1_linear_992_81)" stroke-width="3.8794"/>
<path d="M1907.05 557.352C1887.29 139.473 1532.51 -183.263 1114.64 -163.5C696.757 -143.736 374.021 211.042 393.784 628.92" stroke="url(#paint2_linear_992_81)" stroke-width="3.8794"/>
<circle cx="1210.82" cy="525.519" r="31.6818" fill="#4DE4A7"/>
<path d="M1329.56 508.252C1329.03 506.581 1328.32 505.084 1327.42 503.761C1326.53 502.42 1325.48 501.282 1324.25 500.345C1323.02 499.39 1321.61 498.664 1320.03 498.168C1318.47 497.672 1316.75 497.424 1314.88 497.424C1311.7 497.424 1308.84 498.242 1306.28 499.876C1303.73 501.511 1301.71 503.908 1300.22 507.068C1298.75 510.209 1298.02 514.057 1298.02 518.612C1298.02 523.186 1298.76 527.052 1300.25 530.212C1301.74 533.371 1303.78 535.768 1306.37 537.403C1308.96 539.038 1311.9 539.855 1315.21 539.855C1318.28 539.855 1320.95 539.231 1323.23 537.982C1325.52 536.733 1327.3 534.969 1328.55 532.691C1329.81 530.395 1330.45 527.695 1330.45 524.591L1332.65 525.004H1316.5V517.978H1338.68V524.398C1338.68 529.137 1337.67 533.252 1335.65 536.742C1333.65 540.213 1330.88 542.895 1327.33 544.787C1323.81 546.679 1319.76 547.625 1315.21 547.625C1310.1 547.625 1305.62 546.449 1301.76 544.098C1297.92 541.747 1294.93 538.413 1292.78 534.097C1290.63 529.762 1289.56 524.619 1289.56 518.667C1289.56 514.167 1290.18 510.126 1291.43 506.544C1292.68 502.962 1294.43 499.922 1296.69 497.424C1298.97 494.908 1301.64 492.988 1304.71 491.666C1307.8 490.325 1311.17 489.654 1314.82 489.654C1317.87 489.654 1320.71 490.104 1323.34 491.004C1325.98 491.904 1328.33 493.181 1330.39 494.834C1332.47 496.487 1334.18 498.453 1335.54 500.73C1336.9 502.99 1337.82 505.497 1338.3 508.252H1329.56ZM1351.48 546.854V504.533H1359.72V546.854H1351.48ZM1355.64 498.003C1354.21 498.003 1352.98 497.525 1351.95 496.57C1350.94 495.597 1350.44 494.439 1350.44 493.098C1350.44 491.739 1350.94 490.582 1351.95 489.627C1352.98 488.653 1354.21 488.167 1355.64 488.167C1357.08 488.167 1358.3 488.653 1359.31 489.627C1360.34 490.582 1360.85 491.739 1360.85 493.098C1360.85 494.439 1360.34 495.597 1359.31 496.57C1358.3 497.525 1357.08 498.003 1355.64 498.003ZM1390.56 504.533V511.145H1367.44V504.533H1390.56ZM1373.64 494.393H1381.88V534.427C1381.88 536.025 1382.12 537.228 1382.6 538.037C1383.07 538.827 1383.69 539.368 1384.44 539.662C1385.21 539.938 1386.05 540.076 1386.95 540.076C1387.61 540.076 1388.19 540.03 1388.69 539.938C1389.18 539.846 1389.57 539.773 1389.84 539.717L1391.33 546.523C1390.85 546.707 1390.17 546.89 1389.29 547.074C1388.41 547.276 1387.31 547.386 1385.99 547.405C1383.82 547.441 1381.8 547.056 1379.92 546.247C1378.05 545.439 1376.53 544.19 1375.38 542.5C1374.22 540.81 1373.64 538.689 1373.64 536.136V494.393ZM1401.24 546.854V490.426H1409.76V514.948H1437.89V490.426H1446.43V546.854H1437.89V522.249H1409.76V546.854H1401.24ZM1484.97 529.303V504.533H1493.24V546.854H1485.14V539.525H1484.7C1483.73 541.784 1482.16 543.667 1480.02 545.173C1477.88 546.661 1475.23 547.405 1472.05 547.405C1469.33 547.405 1466.93 546.808 1464.83 545.614C1462.76 544.401 1461.12 542.61 1459.93 540.241C1458.75 537.871 1458.17 534.942 1458.17 531.452V504.533H1466.4V530.46C1466.4 533.344 1467.2 535.64 1468.8 537.348C1470.4 539.056 1472.48 539.91 1475.03 539.91C1476.57 539.91 1478.1 539.525 1479.63 538.753C1481.17 537.982 1482.45 536.815 1483.46 535.254C1484.49 533.693 1484.99 531.709 1484.97 529.303ZM1504.97 546.854V490.426H1513.21V511.393H1513.71C1514.18 510.512 1514.87 509.492 1515.77 508.335C1516.67 507.178 1517.92 506.168 1519.52 505.304C1521.12 504.423 1523.23 503.982 1525.86 503.982C1529.27 503.982 1532.32 504.845 1535 506.572C1537.69 508.298 1539.79 510.787 1541.31 514.038C1542.86 517.29 1543.63 521.202 1543.63 525.776C1543.63 530.35 1542.87 534.271 1541.34 537.541C1539.82 540.792 1537.72 543.299 1535.06 545.063C1532.4 546.808 1529.36 547.68 1525.94 547.68C1523.37 547.68 1521.26 547.248 1519.63 546.385C1518.01 545.522 1516.75 544.512 1515.83 543.354C1514.91 542.197 1514.2 541.169 1513.71 540.268H1513.02V546.854H1504.97ZM1513.04 525.693C1513.04 528.669 1513.48 531.277 1514.34 533.518C1515.2 535.759 1516.45 537.513 1518.09 538.781C1519.72 540.03 1521.72 540.654 1524.09 540.654C1526.55 540.654 1528.61 540.002 1530.26 538.698C1531.92 537.375 1533.17 535.585 1534.01 533.325C1534.87 531.066 1535.31 528.522 1535.31 525.693C1535.31 522.901 1534.88 520.394 1534.04 518.171C1533.21 515.949 1531.96 514.195 1530.29 512.909C1528.64 511.623 1526.57 510.98 1524.09 510.98C1521.7 510.98 1519.68 511.595 1518.03 512.826C1516.4 514.057 1515.16 515.774 1514.31 517.978C1513.47 520.183 1513.04 522.754 1513.04 525.693ZM1604.85 505.249C1604.56 502.641 1603.34 500.62 1601.21 499.188C1599.08 497.736 1596.4 497.011 1593.17 497.011C1590.85 497.011 1588.85 497.378 1587.16 498.113C1585.47 498.829 1584.16 499.821 1583.22 501.089C1582.3 502.338 1581.84 503.761 1581.84 505.359C1581.84 506.7 1582.16 507.857 1582.78 508.831C1583.42 509.804 1584.26 510.622 1585.29 511.283C1586.33 511.926 1587.45 512.468 1588.65 512.909C1589.84 513.331 1590.99 513.68 1592.09 513.956L1597.6 515.388C1599.4 515.829 1601.25 516.426 1603.14 517.179C1605.03 517.932 1606.79 518.924 1608.4 520.155C1610.02 521.386 1611.32 522.91 1612.32 524.729C1613.33 526.547 1613.83 528.724 1613.83 531.259C1613.83 534.455 1613 537.293 1611.35 539.773C1609.72 542.252 1607.34 544.208 1604.22 545.641C1601.11 547.074 1597.35 547.79 1592.95 547.79C1588.72 547.79 1585.07 547.12 1581.98 545.779C1578.89 544.438 1576.48 542.537 1574.73 540.076C1572.99 537.596 1572.02 534.657 1571.84 531.259H1580.38C1580.55 533.298 1581.21 534.997 1582.37 536.356C1583.54 537.697 1585.04 538.698 1586.86 539.359C1588.69 540.002 1590.71 540.324 1592.89 540.324C1595.3 540.324 1597.44 539.947 1599.31 539.194C1601.2 538.422 1602.69 537.357 1603.77 535.998C1604.86 534.62 1605.4 533.013 1605.4 531.176C1605.4 529.505 1604.92 528.136 1603.97 527.071C1603.03 526.005 1601.75 525.124 1600.14 524.426C1598.54 523.728 1596.73 523.112 1594.71 522.58L1588.04 520.761C1583.52 519.531 1579.94 517.721 1577.3 515.333C1574.67 512.945 1573.36 509.786 1573.36 505.855C1573.36 502.604 1574.24 499.766 1576 497.342C1577.76 494.917 1580.15 493.034 1583.17 491.693C1586.18 490.334 1589.58 489.654 1593.36 489.654C1597.18 489.654 1600.55 490.325 1603.47 491.666C1606.41 493.007 1608.72 494.853 1610.41 497.204C1612.1 499.537 1612.99 502.218 1613.06 505.249H1604.85ZM1643.1 504.533V511.145H1619.98V504.533H1643.1ZM1626.18 494.393H1634.42V534.427C1634.42 536.025 1634.66 537.228 1635.14 538.037C1635.61 538.827 1636.23 539.368 1636.98 539.662C1637.75 539.938 1638.59 540.076 1639.49 540.076C1640.15 540.076 1640.73 540.03 1641.23 539.938C1641.72 539.846 1642.11 539.773 1642.38 539.717L1643.87 546.523C1643.39 546.707 1642.71 546.89 1641.83 547.074C1640.95 547.276 1639.85 547.386 1638.53 547.405C1636.36 547.441 1634.34 547.056 1632.46 546.247C1630.59 545.439 1629.07 544.19 1627.92 542.5C1626.76 540.81 1626.18 538.689 1626.18 536.136V494.393ZM1664.53 547.79C1661.85 547.79 1659.42 547.294 1657.25 546.302C1655.09 545.292 1653.37 543.832 1652.1 541.922C1650.85 540.011 1650.23 537.669 1650.23 534.896C1650.23 532.508 1650.69 530.542 1651.61 528.999C1652.52 527.457 1653.76 526.235 1655.33 525.335C1656.89 524.435 1658.63 523.755 1660.56 523.296C1662.49 522.837 1664.45 522.488 1666.46 522.249C1668.99 521.955 1671.05 521.716 1672.63 521.533C1674.21 521.331 1675.36 521.009 1676.07 520.568C1676.79 520.128 1677.15 519.411 1677.15 518.419V518.226C1677.15 515.82 1676.47 513.956 1675.11 512.633C1673.77 511.311 1671.77 510.649 1669.1 510.649C1666.33 510.649 1664.14 511.265 1662.54 512.495C1660.96 513.708 1659.87 515.058 1659.27 516.546L1651.52 514.782C1652.44 512.211 1653.78 510.135 1655.55 508.555C1657.33 506.957 1659.38 505.8 1661.69 505.084C1664 504.349 1666.44 503.982 1668.99 503.982C1670.68 503.982 1672.47 504.184 1674.36 504.588C1676.27 504.974 1678.06 505.69 1679.71 506.737C1681.38 507.784 1682.75 509.281 1683.81 511.228C1684.88 513.157 1685.41 515.664 1685.41 518.75V546.854H1677.37V541.067H1677.04C1676.5 542.133 1675.71 543.18 1674.64 544.208C1673.57 545.237 1672.21 546.091 1670.53 546.771C1668.86 547.45 1666.86 547.79 1664.53 547.79ZM1666.32 541.178C1668.6 541.178 1670.54 540.728 1672.16 539.828C1673.79 538.928 1675.03 537.752 1675.88 536.301C1676.74 534.831 1677.17 533.261 1677.17 531.589V526.134C1676.88 526.428 1676.31 526.703 1675.47 526.961C1674.64 527.199 1673.69 527.411 1672.63 527.594C1671.56 527.76 1670.53 527.916 1669.52 528.063C1668.5 528.191 1667.66 528.301 1666.98 528.393C1665.38 528.595 1663.92 528.935 1662.6 529.413C1661.3 529.89 1660.25 530.579 1659.46 531.479C1658.69 532.361 1658.3 533.536 1658.3 535.006C1658.3 537.045 1659.05 538.588 1660.56 539.635C1662.07 540.663 1663.99 541.178 1666.32 541.178ZM1716.14 504.533V511.145H1693.02V504.533H1716.14ZM1699.22 494.393H1707.46V534.427C1707.46 536.025 1707.7 537.228 1708.18 538.037C1708.66 538.827 1709.27 539.368 1710.02 539.662C1710.8 539.938 1711.63 540.076 1712.53 540.076C1713.19 540.076 1713.77 540.03 1714.27 539.938C1714.76 539.846 1715.15 539.773 1715.42 539.717L1716.91 546.523C1716.43 546.707 1715.76 546.89 1714.87 547.074C1713.99 547.276 1712.89 547.386 1711.57 547.405C1709.4 547.441 1707.38 547.056 1705.51 546.247C1703.63 545.439 1702.12 544.19 1700.96 542.5C1699.8 540.81 1699.22 538.689 1699.22 536.136V494.393ZM1756.28 514.865L1748.82 516.187C1748.51 515.232 1748.01 514.323 1747.33 513.46C1746.67 512.596 1745.77 511.889 1744.63 511.338C1743.49 510.787 1742.07 510.512 1740.36 510.512C1738.03 510.512 1736.08 511.035 1734.52 512.082C1732.96 513.111 1732.18 514.442 1732.18 516.077C1732.18 517.492 1732.7 518.63 1733.75 519.494C1734.79 520.357 1736.48 521.064 1738.82 521.615L1745.54 523.158C1749.43 524.058 1752.34 525.445 1754.25 527.319C1756.16 529.192 1757.11 531.626 1757.11 534.62C1757.11 537.155 1756.38 539.414 1754.91 541.398C1753.46 543.364 1751.43 544.906 1748.82 546.027C1746.23 547.147 1743.23 547.708 1739.81 547.708C1735.07 547.708 1731.2 546.697 1728.21 544.677C1725.21 542.638 1723.38 539.745 1722.7 535.998L1730.66 534.785C1731.16 536.861 1732.18 538.432 1733.72 539.497C1735.26 540.544 1737.27 541.067 1739.75 541.067C1742.45 541.067 1744.61 540.507 1746.23 539.387C1747.84 538.248 1748.65 536.861 1748.65 535.226C1748.65 533.904 1748.16 532.793 1747.17 531.892C1746.19 530.992 1744.69 530.313 1742.67 529.854L1735.51 528.283C1731.56 527.383 1728.64 525.95 1726.75 523.985C1724.88 522.019 1723.94 519.531 1723.94 516.518C1723.94 514.02 1724.64 511.834 1726.03 509.961C1727.43 508.087 1729.36 506.627 1731.82 505.58C1734.28 504.514 1737.1 503.982 1740.28 503.982C1744.85 503.982 1748.45 504.974 1751.08 506.957C1753.7 508.923 1755.44 511.559 1756.28 514.865Z" fill="black"/>
<line x1="1296.82" y1="578.537" x2="1752" y2="578.537" stroke="#43D79B" stroke-width="9.05194" stroke-dasharray="9.05 9.05"/>
</g>
<defs>
<filter id="filter0_f_992_81" x="232.48" y="-413.739" width="1674.92" height="1336.62" filterUnits="userSpaceOnUse" color-interpolation-filters="sRGB">
<feFlood flood-opacity="0" result="BackgroundImageFix"/>
<feBlend mode="normal" in="SourceGraphic" in2="BackgroundImageFix" result="shape"/>
<feGaussianBlur stdDeviation="99.3" result="effect1_foregroundBlur_992_81"/>
</filter>
<linearGradient id="paint0_linear_992_81" x1="1435.35" y1="105.876" x2="1512.71" y2="979.2" gradientUnits="userSpaceOnUse">
<stop stop-color="white" stop-opacity="0"/>
<stop offset="1" stop-color="white"/>
</linearGradient>
<linearGradient id="paint1_linear_992_81" x1="2076.03" y1="1119.08" x2="1459.94" y2="-264.954" gradientUnits="userSpaceOnUse">
<stop stop-color="white" stop-opacity="0"/>
<stop offset="1" stop-color="white"/>
</linearGradient>
<linearGradient id="paint2_linear_992_81" x1="358" y1="327.669" x2="1114.64" y2="-163.499" gradientUnits="userSpaceOnUse">
<stop stop-color="white" stop-opacity="0"/>
<stop offset="1" stop-color="white"/>
</linearGradient>
<clipPath id="clip0_992_81">
<rect width="2005" height="1031" fill="white"/>
</clipPath>
</defs>
</svg>
