<svg width="36" height="42" viewBox="0 0 36 42" fill="none" xmlns="http://www.w3.org/2000/svg">
<path d="M21.42 12.168C21.3829 11.986 21.5922 11.8562 21.7388 11.9702L24.2518 13.9258C24.2979 13.9616 24.3573 13.9756 24.4145 13.9639L27.5348 13.3292C27.7168 13.2921 27.8466 13.5014 27.7326 13.648L25.777 16.161C25.7412 16.2071 25.7272 16.2665 25.7389 16.3237L26.3736 19.444C26.4107 19.626 26.2014 19.7558 26.0548 19.6417L23.5418 17.6862C23.4957 17.6504 23.4363 17.6364 23.3791 17.6481L20.2588 18.2828C20.0768 18.3198 19.947 18.1105 20.0611 17.964L22.0166 15.451C22.0524 15.4049 22.0664 15.3455 22.0547 15.2883L21.42 12.168Z" fill="url(#paint0_linear_948_1548)"/>
<path d="M8.91926 7.83917C8.90076 7.7482 9.00541 7.6833 9.07867 7.74031L10.6636 8.97365C10.6866 8.99157 10.7163 8.99854 10.7449 8.99272L12.7129 8.59237C12.8039 8.57387 12.8688 8.67852 12.8118 8.75178L11.5784 10.3367C11.5605 10.3597 11.5535 10.3895 11.5593 10.4181L11.9597 12.386C11.9782 12.477 11.8736 12.5419 11.8003 12.4849L10.2154 11.2515C10.1923 11.2336 10.1626 11.2266 10.134 11.2325L8.16606 11.6328C8.07509 11.6513 8.01019 11.5467 8.0672 11.4734L9.30054 9.88847C9.31846 9.86544 9.32543 9.83572 9.31961 9.80712L8.91926 7.83917Z" fill="url(#paint1_linear_948_1548)"/>
<path d="M10.4765 20.8553C10.4395 20.6734 10.6488 20.5436 10.7953 20.6576L15.1716 24.0631C15.2177 24.0989 15.2771 24.1129 15.3343 24.1012L20.7682 22.9958C20.9502 22.9588 21.08 23.1681 20.9659 23.3146L17.5605 27.6909C17.5246 27.737 17.5107 27.7964 17.5223 27.8536L18.6278 33.2875C18.6648 33.4694 18.4555 33.5992 18.3089 33.4852L13.9326 30.0797C13.8866 30.0439 13.8272 30.0299 13.77 30.0416L8.33605 31.147C8.15412 31.184 8.02432 30.9747 8.13834 30.8282L11.5438 26.4519C11.5797 26.4058 11.5936 26.3464 11.582 26.2892L10.4765 20.8553Z" fill="url(#paint2_linear_948_1548)"/>
<g filter="url(#filter0_f_948_1548)">
<path d="M21.6006 12.168C21.5636 11.986 21.7729 11.8562 21.9194 11.9702L24.4325 13.9258C24.4785 13.9616 24.538 13.9756 24.5952 13.9639L27.7155 13.3292C27.8974 13.2921 28.0272 13.5014 27.9132 13.648L25.9577 16.161C25.9218 16.2071 25.9079 16.2665 25.9195 16.3237L26.5543 19.444C26.5913 19.626 26.382 19.7558 26.2355 19.6417L23.7225 17.6862C23.6764 17.6504 23.617 17.6364 23.5598 17.6481L20.4394 18.2828C20.2575 18.3198 20.1277 18.1105 20.2417 17.964L22.1973 15.451C22.2331 15.4049 22.247 15.3455 22.2354 15.2883L21.6006 12.168Z" fill="url(#paint3_linear_948_1548)"/>
<path d="M9.09993 7.83917C9.08142 7.7482 9.18607 7.6833 9.25933 7.74031L10.8443 8.97365C10.8673 8.99157 10.897 8.99854 10.9256 8.99272L12.8936 8.59237C12.9845 8.57387 13.0494 8.67852 12.9924 8.75178L11.7591 10.3367C11.7412 10.3597 11.7342 10.3895 11.74 10.4181L12.1404 12.386C12.1589 12.477 12.0542 12.5419 11.981 12.4849L10.396 11.2515C10.373 11.2336 10.3433 11.2266 10.3147 11.2325L8.34672 11.6328C8.25576 11.6513 8.19086 11.5467 8.24787 11.4734L9.4812 9.88847C9.49913 9.86544 9.50609 9.83572 9.50027 9.80712L9.09993 7.83917Z" fill="url(#paint4_linear_948_1548)"/>
<path d="M10.6572 20.8553C10.6202 20.6734 10.8295 20.5436 10.976 20.6576L15.3523 24.0631C15.3984 24.0989 15.4578 24.1129 15.515 24.1012L20.9489 22.9958C21.1308 22.9588 21.2606 23.1681 21.1466 23.3146L17.7411 27.6909C17.7053 27.737 17.6914 27.7964 17.703 27.8536L18.8084 33.2875C18.8454 33.4694 18.6361 33.5992 18.4896 33.4852L14.1133 30.0797C14.0672 30.0439 14.0078 30.0299 13.9506 30.0416L8.51672 31.147C8.33478 31.184 8.20499 30.9747 8.31901 30.8282L11.7245 26.4519C11.7603 26.4058 11.7743 26.3464 11.7626 26.2892L10.6572 20.8553Z" fill="url(#paint5_linear_948_1548)"/>
</g>
<defs>
<filter id="filter0_f_948_1548" x="0.526563" y="0.0189943" width="35.1295" height="41.2091" filterUnits="userSpaceOnUse" color-interpolation-filters="sRGB">
<feFlood flood-opacity="0" result="BackgroundImageFix"/>
<feBlend mode="normal" in="SourceGraphic" in2="BackgroundImageFix" result="shape"/>
<feGaussianBlur stdDeviation="3.85" result="effect1_foregroundBlur_948_1548"/>
</filter>
<linearGradient id="paint0_linear_948_1548" x1="25.9524" y1="20.3015" x2="18.9312" y2="14.0202" gradientUnits="userSpaceOnUse">
<stop stop-color="#52E063"/>
<stop offset="0.125154" stop-color="#EDE230"/>
<stop offset="0.331682" stop-color="#9A5DFF"/>
<stop offset="0.770833" stop-color="#00B3FF"/>
<stop offset="1" stop-color="#40CC8F"/>
</linearGradient>
<linearGradient id="paint1_linear_948_1548" x1="11.6914" y1="12.8505" x2="7.41527" y2="9.025" gradientUnits="userSpaceOnUse">
<stop stop-color="#52E063"/>
<stop offset="0.125154" stop-color="#EDE230"/>
<stop offset="0.331682" stop-color="#9A5DFF"/>
<stop offset="0.770833" stop-color="#00B3FF"/>
<stop offset="1" stop-color="#40CC8F"/>
</linearGradient>
<linearGradient id="paint2_linear_948_1548" x1="17.8792" y1="34.3478" x2="6.51489" y2="24.181" gradientUnits="userSpaceOnUse">
<stop stop-color="#52E063"/>
<stop offset="0.125154" stop-color="#EDE230"/>
<stop offset="0.331682" stop-color="#9A5DFF"/>
<stop offset="0.770833" stop-color="#00B3FF"/>
<stop offset="1" stop-color="#40CC8F"/>
</linearGradient>
<linearGradient id="paint3_linear_948_1548" x1="26.133" y1="20.3015" x2="19.1119" y2="14.0202" gradientUnits="userSpaceOnUse">
<stop stop-color="#52E063"/>
<stop offset="0.125154" stop-color="#EDE230"/>
<stop offset="0.331682" stop-color="#9A5DFF"/>
<stop offset="0.770833" stop-color="#00B3FF"/>
<stop offset="1" stop-color="#40CC8F"/>
</linearGradient>
<linearGradient id="paint4_linear_948_1548" x1="11.872" y1="12.8505" x2="7.59594" y2="9.025" gradientUnits="userSpaceOnUse">
<stop stop-color="#52E063"/>
<stop offset="0.125154" stop-color="#EDE230"/>
<stop offset="0.331682" stop-color="#9A5DFF"/>
<stop offset="0.770833" stop-color="#00B3FF"/>
<stop offset="1" stop-color="#40CC8F"/>
</linearGradient>
<linearGradient id="paint5_linear_948_1548" x1="18.0599" y1="34.3478" x2="6.69556" y2="24.181" gradientUnits="userSpaceOnUse">
<stop stop-color="#52E063"/>
<stop offset="0.125154" stop-color="#EDE230"/>
<stop offset="0.331682" stop-color="#9A5DFF"/>
<stop offset="0.770833" stop-color="#00B3FF"/>
<stop offset="1" stop-color="#40CC8F"/>
</linearGradient>
</defs>
</svg>
