<svg width="1272" height="457" viewBox="0 0 1272 457" fill="none" xmlns="http://www.w3.org/2000/svg">
<path d="M45.0722 351.681V351.681C121.254 292.258 220.803 271.793 314.247 296.344L345.921 304.666L405.688 313.59C585.697 340.467 769.494 305.304 926.87 213.879V213.879L1023.61 149.639C1136.29 74.8183 1281.86 71.1615 1398.15 140.231V140.231" stroke="url(#paint0_linear_54_298)" stroke-width="2"/>
<path d="M36.6762 450.158L86.1288 411.584C131.147 376.47 189.973 364.376 245.193 378.884V378.884C303.048 394.085 364.681 380.051 410.252 341.301L482.017 280.276C569.51 205.877 693.577 192.488 794.929 246.508V246.508C872.698 287.958 965.449 290.355 1045.25 252.976L1076.69 238.252C1153.43 202.308 1240.63 195.494 1322.02 219.081L1389.75 238.708" stroke="url(#paint1_linear_54_298)" stroke-width="2"/>
<defs>
<linearGradient id="paint0_linear_54_298" x1="1255.06" y1="42.3313" x2="970.966" y2="674.534" gradientUnits="userSpaceOnUse">
<stop stop-color="#C8C8C8"/>
<stop offset="1" stop-color="#CFCFCF" stop-opacity="0"/>
</linearGradient>
<linearGradient id="paint1_linear_54_298" x1="1246.66" y1="140.808" x2="962.57" y2="773.012" gradientUnits="userSpaceOnUse">
<stop stop-color="#C8C8C8"/>
<stop offset="1" stop-color="#CFCFCF" stop-opacity="0"/>
</linearGradient>
</defs>
</svg>
