<svg width="128" height="128" viewBox="0 0 128 128" fill="none" xmlns="http://www.w3.org/2000/svg">
<path fill-rule="evenodd" clip-rule="evenodd" d="M71.8264 19.5537C64.0502 12.0443 51.6588 12.2606 44.1493 20.0368L37.5106 26.9114L34.0373 30.5081L41.2307 37.4547L44.704 33.858L51.3427 26.9834C55.0157 23.1799 61.0764 23.0742 64.8799 26.7471C68.6833 30.42 68.7891 36.4808 65.1162 40.2842L38.9823 67.3466C31.547 75.0461 31.7611 87.3154 39.4607 94.7507C47.1602 102.186 59.4294 101.972 66.8648 94.2724L80.9444 79.6926L84.4176 76.0959L77.2351 69.1598L80.6135 65.6613C85.1044 61.0108 92.5149 60.8815 97.1654 65.3724C101.816 69.8633 101.945 77.2738 97.4543 81.9242L93.981 85.5209L101.174 92.4675L104.648 88.8708C112.975 80.2476 112.735 66.5064 104.112 58.179C95.4887 49.8516 81.7475 50.0914 73.4201 58.7147L69.9468 62.3114L77.1294 69.2475L73.7509 72.746L59.6714 87.3258C56.0725 91.0525 50.134 91.1562 46.4072 87.5573C42.6805 83.9585 42.5768 78.0199 46.1757 74.2932L72.3096 47.2308C79.819 39.4545 79.6027 27.0631 71.8264 19.5537Z" fill="url(#paint0_linear_531_1564)"/>
<defs>
<linearGradient id="paint0_linear_531_1564" x1="47.9192" y1="31.2567" x2="103.55" y2="90.1949" gradientUnits="userSpaceOnUse">
<stop stop-color="#7D3EFC"/>
<stop offset="0.440625" stop-color="#FB408A"/>
<stop offset="1" stop-color="#F9A42D"/>
</linearGradient>
</defs>
</svg>
