<svg width="512" height="512" viewBox="0 0 512 512" fill="none" xmlns="http://www.w3.org/2000/svg">
<path fill-rule="evenodd" clip-rule="evenodd" d="M293.028 99.0722C264.821 71.8331 219.873 72.6177 192.634 100.825L158.943 135.713L143.66 151.538L175.311 182.103L190.594 166.278L224.285 131.39C234.643 120.663 251.736 120.365 262.463 130.723L266.645 134.762C277.372 145.121 277.67 162.214 267.312 172.94L150.067 294.351C121.976 323.439 122.785 369.792 151.874 397.883C180.963 425.974 227.316 425.165 255.407 396.076L317.079 332.213L332.361 316.387L300.752 285.863L315.81 270.27C333.266 252.194 362.07 251.691 380.147 269.147C398.223 286.603 398.726 315.407 381.27 333.484L365.987 349.309L397.638 379.874L412.921 364.049C447.257 328.492 446.268 271.832 410.712 237.496C375.155 203.159 318.495 204.148 284.159 239.705L268.876 255.53L300.485 286.055L285.428 301.648L223.756 365.511C212.546 377.119 194.048 377.442 182.439 366.232C170.831 355.022 170.508 336.524 181.718 324.916L298.963 203.505C326.202 175.298 325.417 130.35 297.21 103.111L293.028 99.0722Z" fill="url(#paint0_linear_417_982)"/>
<defs>
<linearGradient id="paint0_linear_417_982" x1="209.895" y1="161.862" x2="408.895" y2="370.362" gradientUnits="userSpaceOnUse">
<stop stop-color="#7D3EFC"/>
<stop offset="0.440625" stop-color="#FB408A"/>
<stop offset="1" stop-color="#F9A42D"/>
</linearGradient>
</defs>
</svg>
