<svg width="332" height="123" viewBox="0 0 332 123" fill="none" xmlns="http://www.w3.org/2000/svg">
<path fill-rule="evenodd" clip-rule="evenodd" d="M70.6433 15.2713C63.6252 8.49403 52.442 8.68925 45.6647 15.7073L37.1858 24.4875L33.6776 28.1203L40.9433 35.1367L44.4515 31.5039L52.9304 22.7237C55.8326 19.7183 60.6216 19.6347 63.6269 22.5369C66.6322 25.4391 66.7158 30.2281 63.8136 33.2335L33.6534 64.4653C26.9403 71.4169 27.1336 82.4944 34.0853 89.2076C41.0369 95.9207 52.1144 95.7273 58.8276 88.7757L74.9383 72.0925L78.4465 68.4597L72.1163 62.3467L74.223 60.1652C78.878 55.3448 86.5593 55.2107 91.3797 59.8657C96.2 64.5207 96.3341 72.202 91.6791 77.0224L88.1709 80.6552L95.4366 87.6716L98.9448 84.0387C107.475 75.2056 107.229 61.13 98.396 52.6C89.5629 44.07 75.4873 44.3157 66.9573 53.1488L63.4491 56.7816L69.7793 62.8946L67.6727 65.0761L51.5619 81.7593C48.7238 84.6982 44.0406 84.78 41.1017 81.9419C38.1627 79.1038 38.081 74.4206 40.9191 71.4816L71.0793 40.2498C77.8565 33.2318 77.6613 22.0485 70.6433 15.2713Z" fill="url(#paint0_linear_513_1755)"/>
<path d="M144.605 73.9933C140.721 73.9933 137.724 72.9624 135.614 70.9004C133.528 68.8144 132.485 65.5896 132.485 61.2259C132.485 58.3247 132.988 55.9391 133.995 54.0689C135.002 52.1747 136.465 50.7721 138.383 49.861C140.301 48.9259 142.603 48.4584 145.288 48.4584C146.895 48.4584 148.405 48.6382 149.82 48.9979C151.234 49.3575 152.481 49.909 153.56 50.6522C154.663 51.3955 155.514 52.3306 156.114 53.4575C156.737 54.5604 157.049 55.8791 157.049 57.4136H151.618C151.618 56.6703 151.45 56.011 151.115 55.4356C150.803 54.8601 150.359 54.3806 149.784 53.997C149.208 53.6133 148.549 53.3256 147.806 53.1338C147.063 52.942 146.283 52.8461 145.468 52.8461C144.221 52.8461 143.13 53.0139 142.195 53.3496C141.26 53.6613 140.481 54.1528 139.858 54.8242C139.258 55.4715 138.803 56.2867 138.491 57.2698C138.179 58.2528 138.023 59.3917 138.023 60.6864V61.7653C138.023 63.5636 138.287 65.0381 138.815 66.189C139.342 67.3399 140.133 68.203 141.188 68.7785C142.243 69.3299 143.55 69.6056 145.108 69.6056C146.403 69.6056 147.542 69.4138 148.525 69.0302C149.532 68.6226 150.311 68.0472 150.863 67.3039C151.438 66.5606 151.726 65.6495 151.726 64.5706V64.3188H144.353V60.2189H157.049V73.5618H153.524L153.057 70.9004C152.337 71.5957 151.558 72.1711 150.719 72.6267C149.904 73.0822 148.993 73.4179 147.986 73.6337C146.979 73.8735 145.852 73.9933 144.605 73.9933ZM164.521 80.3231C163.634 80.3231 162.89 80.2512 162.291 80.1073C161.715 79.9875 161.344 79.9035 161.176 79.8556V76.4749H163.37C163.969 76.4749 164.509 76.3311 164.988 76.0433C165.468 75.7796 165.887 75.4199 166.247 74.9644C166.607 74.5328 166.87 74.0653 167.038 73.5618L159.63 54.6443H164.916L168.153 63.3838C168.297 63.7914 168.453 64.3068 168.621 64.9302C168.813 65.5296 169.004 66.165 169.196 66.8364C169.388 67.4837 169.544 68.0592 169.664 68.5627H169.843C169.939 68.227 170.047 67.8314 170.167 67.3758C170.287 66.9203 170.407 66.4527 170.527 65.9732C170.671 65.4937 170.803 65.0381 170.922 64.6066C171.066 64.151 171.186 63.7554 171.282 63.4197L173.979 54.6443H179.014L172.577 72.6626C172.217 73.7176 171.798 74.7007 171.318 75.6118C170.862 76.5468 170.323 77.362 169.7 78.0574C169.076 78.7767 168.333 79.3281 167.47 79.7117C166.631 80.1193 165.648 80.3231 164.521 80.3231ZM186.279 73.9933C185.656 73.9933 184.984 73.9214 184.265 73.7776C183.57 73.6337 182.91 73.3819 182.287 73.0223C181.664 72.6387 181.148 72.0992 180.741 71.4039C180.357 70.6846 180.165 69.7735 180.165 68.6706C180.165 67.3519 180.453 66.2609 181.028 65.3978C181.604 64.5346 182.419 63.8633 183.474 63.3838C184.553 62.8802 185.836 62.5326 187.322 62.3408C188.809 62.149 190.451 62.0531 192.249 62.0531V60.6504C192.249 60.099 192.153 59.6194 191.962 59.2118C191.794 58.8042 191.482 58.4806 191.026 58.2408C190.595 58.001 189.983 57.8812 189.192 57.8812C188.401 57.8812 187.754 57.9771 187.25 58.1689C186.771 58.3607 186.423 58.6124 186.207 58.9241C186.015 59.2118 185.919 59.5355 185.919 59.8952V60.3268H181.064C181.04 60.2069 181.028 60.099 181.028 60.0031C181.028 59.8832 181.028 59.7393 181.028 59.5715C181.028 58.4686 181.364 57.5215 182.035 56.7303C182.707 55.9151 183.654 55.2917 184.876 54.8601C186.099 54.4285 187.526 54.2127 189.156 54.2127C190.907 54.2127 192.369 54.4405 193.544 54.8961C194.743 55.3516 195.654 56.023 196.277 56.9101C196.925 57.7972 197.248 58.9121 197.248 60.2548V68.8504C197.248 69.282 197.368 69.6056 197.608 69.8214C197.872 70.0132 198.159 70.1092 198.471 70.1092H199.658V73.3819C199.418 73.5018 199.047 73.6217 198.543 73.7416C198.04 73.8855 197.428 73.9574 196.709 73.9574C196.014 73.9574 195.39 73.8495 194.839 73.6337C194.311 73.4419 193.868 73.1662 193.508 72.8065C193.148 72.4229 192.897 71.9673 192.753 71.4398H192.501C192.093 71.9434 191.59 72.3869 190.99 72.7705C190.415 73.1542 189.732 73.4539 188.94 73.6697C188.173 73.8855 187.286 73.9933 186.279 73.9933ZM187.969 70.217C188.641 70.217 189.24 70.1211 189.768 69.9293C190.295 69.7135 190.739 69.4378 191.098 69.1021C191.458 68.7425 191.734 68.3109 191.926 67.8074C192.141 67.3039 192.249 66.7644 192.249 66.189V65.146C190.907 65.146 189.708 65.2419 188.653 65.4337C187.598 65.6016 186.759 65.9013 186.135 66.3329C185.536 66.7644 185.236 67.3638 185.236 68.1311C185.236 68.5627 185.344 68.9343 185.56 69.246C185.776 69.5577 186.087 69.7975 186.495 69.9653C186.902 70.1331 187.394 70.217 187.969 70.217ZM202.142 73.5618V54.6443H206.278L206.674 57.2338H206.926C207.357 56.6104 207.873 56.0709 208.472 55.6154C209.096 55.1598 209.791 54.8122 210.558 54.5724C211.325 54.3326 212.165 54.2127 213.076 54.2127C214.322 54.2127 215.413 54.4405 216.348 54.8961C217.283 55.3516 218.003 56.0709 218.506 57.054C219.034 58.037 219.298 59.3197 219.298 60.9022V73.5618H214.298V61.6934C214.298 61.094 214.226 60.5905 214.083 60.1829C213.939 59.7513 213.723 59.4037 213.435 59.1399C213.172 58.8522 212.836 58.6484 212.428 58.5285C212.021 58.4086 211.565 58.3487 211.062 58.3487C210.318 58.3487 209.647 58.5285 209.048 58.8882C208.448 59.2478 207.981 59.7393 207.645 60.3627C207.309 60.9861 207.141 61.7054 207.141 62.5206V73.5618H202.142ZM228.776 73.9933C228.153 73.9933 227.482 73.9214 226.762 73.7776C226.067 73.6337 225.408 73.3819 224.784 73.0223C224.161 72.6387 223.645 72.0992 223.238 71.4039C222.854 70.6846 222.662 69.7735 222.662 68.6706C222.662 67.3519 222.95 66.2609 223.526 65.3978C224.101 64.5346 224.916 63.8633 225.971 63.3838C227.05 62.8802 228.333 62.5326 229.819 62.3408C231.306 62.149 232.948 62.0531 234.747 62.0531V60.6504C234.747 60.099 234.651 59.6194 234.459 59.2118C234.291 58.8042 233.979 58.4806 233.524 58.2408C233.092 58.001 232.481 57.8812 231.69 57.8812C230.898 57.8812 230.251 57.9771 229.748 58.1689C229.268 58.3607 228.92 58.6124 228.705 58.9241C228.513 59.2118 228.417 59.5355 228.417 59.8952V60.3268H223.562C223.538 60.2069 223.526 60.099 223.526 60.0031C223.526 59.8832 223.526 59.7393 223.526 59.5715C223.526 58.4686 223.861 57.5215 224.533 56.7303C225.204 55.9151 226.151 55.2917 227.374 54.8601C228.597 54.4285 230.023 54.2127 231.654 54.2127C233.404 54.2127 234.866 54.4405 236.041 54.8961C237.24 55.3516 238.151 56.023 238.775 56.9101C239.422 57.7972 239.746 58.9121 239.746 60.2548V68.8504C239.746 69.282 239.866 69.6056 240.105 69.8214C240.369 70.0132 240.657 70.1092 240.968 70.1092H242.155V73.3819C241.916 73.5018 241.544 73.6217 241.04 73.7416C240.537 73.8855 239.926 73.9574 239.206 73.9574C238.511 73.9574 237.888 73.8495 237.336 73.6337C236.809 73.4419 236.365 73.1662 236.005 72.8065C235.646 72.4229 235.394 71.9673 235.25 71.4398H234.998C234.591 71.9434 234.087 72.3869 233.488 72.7705C232.912 73.1542 232.229 73.4539 231.438 73.6697C230.671 73.8855 229.783 73.9933 228.776 73.9933ZM230.467 70.217C231.138 70.217 231.738 70.1211 232.265 69.9293C232.793 69.7135 233.236 69.4378 233.596 69.1021C233.955 68.7425 234.231 68.3109 234.423 67.8074C234.639 67.3039 234.747 66.7644 234.747 66.189V65.146C233.404 65.146 232.205 65.2419 231.15 65.4337C230.095 65.6016 229.256 65.9013 228.633 66.3329C228.033 66.7644 227.733 67.3638 227.733 68.1311C227.733 68.5627 227.841 68.9343 228.057 69.246C228.273 69.5577 228.585 69.7975 228.992 69.9653C229.4 70.1331 229.891 70.217 230.467 70.217ZM256.292 73.9933C252.408 73.9933 249.411 72.9624 247.301 70.9004C245.215 68.8144 244.172 65.5896 244.172 61.2259C244.172 58.3247 244.676 55.9391 245.683 54.0689C246.69 52.1747 248.152 50.7721 250.07 49.861C251.988 48.9259 254.29 48.4584 256.976 48.4584C258.582 48.4584 260.093 48.6382 261.507 48.9979C262.922 49.3575 264.169 49.909 265.247 50.6522C266.35 51.3955 267.202 52.3306 267.801 53.4575C268.424 54.5604 268.736 55.8791 268.736 57.4136H263.305C263.305 56.6703 263.138 56.011 262.802 55.4356C262.49 54.8601 262.047 54.3806 261.471 53.997C260.896 53.6133 260.236 53.3256 259.493 53.1338C258.75 52.942 257.971 52.8461 257.155 52.8461C255.909 52.8461 254.818 53.0139 253.883 53.3496C252.948 53.6613 252.168 54.1528 251.545 54.8242C250.946 55.4715 250.49 56.2867 250.178 57.2698C249.867 58.2528 249.711 59.3917 249.711 60.6864V61.7653C249.711 63.5636 249.974 65.0381 250.502 66.189C251.029 67.3399 251.821 68.203 252.876 68.7785C253.931 69.3299 255.237 69.6056 256.796 69.6056C258.091 69.6056 259.229 69.4138 260.212 69.0302C261.219 68.6226 261.999 68.0472 262.55 67.3039C263.126 66.5606 263.413 65.6495 263.413 64.5706V64.3188H256.041V60.2189H268.736V73.5618H265.212L264.744 70.9004C264.025 71.5957 263.245 72.1711 262.406 72.6267C261.591 73.0822 260.68 73.4179 259.673 73.6337C258.666 73.8735 257.539 73.9933 256.292 73.9933ZM279.589 73.9933C277.671 73.9933 276.148 73.4659 275.021 72.4109C273.894 71.3559 273.331 69.6536 273.331 67.3039V54.6443H278.33V66.4767C278.33 67.1001 278.402 67.6276 278.546 68.0592C278.69 68.4668 278.893 68.8024 279.157 69.0662C279.445 69.3299 279.792 69.5217 280.2 69.6416C280.608 69.7615 281.063 69.8214 281.567 69.8214C282.31 69.8214 282.981 69.6416 283.581 69.282C284.18 68.9223 284.648 68.4308 284.983 67.8074C285.319 67.16 285.487 66.4408 285.487 65.6495V54.6443H290.486V73.5618H286.386L286.026 70.9723H285.775C285.319 71.5717 284.78 72.0992 284.156 72.5548C283.557 73.0103 282.873 73.358 282.106 73.5977C281.339 73.8615 280.5 73.9933 279.589 73.9933ZM295.075 73.5618V54.6443H299.211L299.606 57.5934H299.858C300.098 56.97 300.409 56.4066 300.793 55.9031C301.177 55.3756 301.656 54.956 302.232 54.6443C302.807 54.3326 303.478 54.1768 304.246 54.1768C304.653 54.1768 305.025 54.2247 305.361 54.3206C305.696 54.3926 305.948 54.4645 306.116 54.5364V59.068H304.569C303.826 59.068 303.167 59.1759 302.591 59.3917C302.04 59.5835 301.572 59.8952 301.189 60.3268C300.805 60.7583 300.517 61.2858 300.325 61.9092C300.158 62.5326 300.074 63.2639 300.074 64.103V73.5618H295.075ZM314.851 73.9933C312.933 73.9933 311.41 73.4659 310.283 72.4109C309.157 71.3559 308.593 69.6536 308.593 67.3039V54.6443H313.592V66.4767C313.592 67.1001 313.664 67.6276 313.808 68.0592C313.952 68.4668 314.156 68.8024 314.419 69.0662C314.707 69.3299 315.055 69.5217 315.462 69.6416C315.87 69.7615 316.326 69.8214 316.829 69.8214C317.572 69.8214 318.244 69.6416 318.843 69.282C319.442 68.9223 319.91 68.4308 320.246 67.8074C320.581 67.16 320.749 66.4408 320.749 65.6495V54.6443H325.748V73.5618H321.648L321.289 70.9723H321.037C320.581 71.5717 320.042 72.0992 319.418 72.5548C318.819 73.0103 318.136 73.358 317.369 73.5977C316.601 73.8615 315.762 73.9933 314.851 73.9933Z" fill="url(#paint1_linear_513_1755)"/>
<defs>
<linearGradient id="paint0_linear_513_1755" x1="47.8796" y1="39.2847" x2="99.1087" y2="92.9549" gradientUnits="userSpaceOnUse">
<stop stop-color="#7D3EFC"/>
<stop offset="0.440625" stop-color="#FB408A"/>
<stop offset="1" stop-color="#F9A42D"/>
</linearGradient>
<linearGradient id="paint1_linear_513_1755" x1="162.451" y1="56.7819" x2="316.294" y2="102.353" gradientUnits="userSpaceOnUse">
<stop stop-color="#9B6AFF"/>
<stop offset="0.440625" stop-color="#FB408A"/>
<stop offset="1" stop-color="#F9A42D"/>
</linearGradient>
</defs>
</svg>
