<svg width="49" height="50" viewBox="0 0 49 50" fill="none" xmlns="http://www.w3.org/2000/svg">
<path fill-rule="evenodd" clip-rule="evenodd" d="M39.1354 24.2771C39.1354 27.059 36.8802 29.3143 34.0982 29.3143C31.3162 29.3143 29.061 27.059 29.061 24.2771L29.061 22.7566L26.0201 22.7566L26.0201 24.2771C26.0201 28.7385 29.6368 32.3552 34.0982 32.3552C38.5596 32.3552 42.1763 28.7385 42.1763 24.2771L42.1763 22.7566L39.1354 22.7566L39.1354 24.2771ZM26.0397 11.3892C23.9787 9.39888 20.6944 9.4562 18.7041 11.5172L14.6718 15.6928L13.6156 16.7865L15.803 18.8989L16.8592 17.8052L20.8915 13.6296C21.7152 12.7767 23.0744 12.753 23.9273 13.5766C24.7803 14.4003 24.804 15.7595 23.9803 16.6125L10.888 30.17C8.91631 32.2117 8.9731 35.4652 11.0148 37.4369C13.0566 39.4086 16.3101 39.3518 18.2818 37.3101L25.216 30.1295L26.2722 29.0358L24.0848 26.9234L23.0286 28.0171L16.0944 35.1977C15.2893 36.0313 13.9609 36.0545 13.1272 35.2495C12.2936 34.4444 12.2704 33.116 13.0754 32.2823L26.1678 18.7248C28.1581 16.6638 28.1008 13.3795 26.0397 11.3892Z" fill="black"/>
</svg>
